<svg width="77" height="47" viewBox="0 0 77 47" fill="none" xmlns="http://www.w3.org/2000/svg">
  <defs>
    <linearGradient id="vite_v_grad" x1="38.5" y1="5" x2="38.5" y2="42" gradientUnits="userSpaceOnUse">
      <stop stop-color="#00F0FF"/>
      <stop offset="1" stop-color="#0066FF"/>
    </linearGradient>
  </defs>
  
  <!-- Parentheses from original Vite template -->
  <path d="M6.919 0C-2.279 13.166 -2.333 33.575 6.919 46.789H13.134C3.884 33.575 3.938 13.166 13.134 0H6.919Z" fill="currentColor" opacity="0.4"/>
  <path d="M69.343 0C78.541 13.166 78.595 33.575 69.343 46.789H63.128C72.378 33.575 72.324 13.166 63.128 0H69.343Z" fill="currentColor" opacity="0.4"/>

  <!-- New V Logo Mark -->
  <path d="M28 12C28 12 33 10 39 12L44 38L49 12C55 10 60 12 60 12L44 44L28 12Z" fill="url(#vite_v_grad)"/>
  
  <!-- Circuit Detail (Small) -->
  <path d="M54 18L50 28" stroke="#051226" stroke-width="2" stroke-linecap="round" opacity="0.8"/>
  <circle cx="49" cy="31" r="2.5" stroke="#051226" stroke-width="2" opacity="0.8"/>
</svg>
